<svg id="Layer_1" data-name="Layer 1" xmlns="http://www.w3.org/2000/svg" viewBox="0 0 400 400"><defs><style>.cls-1{fill:#f7931e;}.cls-2{fill:#f2f2f2;}.cls-3{stroke:#000;stroke-miterlimit:10;stroke-width:0.25px;}.cls-4{fill:#fff;}</style></defs><title>logo</title><circle class="cls-1" cx="200" cy="200" r="167.5"/><path d="M200,33A167,167,0,0,1,318.09,318.09,167,167,0,0,1,81.91,81.91,165.93,165.93,0,0,1,200,33m0-1A168,168,0,1,0,368,200,168,168,0,0,0,200,32Z"/><rect class="cls-2" x="69.26" y="150.62" width="159.6" height="42.3" transform="translate(-78.17 181.34) rotate(-51.46)"/><path d="M182.26,96.35l32.89,26.2L115.86,247.19,83,221,182.26,96.35m0-.35L82.62,221l33.28,26.51,99.6-125L182.22,96Z"/><polygon class="cls-3" points="82.62 221.03 115.9 247.54 81.8 257.13 82.62 221.03"/><path class="cls-4" d="M82,256.62c13.88,13.3,27.8,26.57,42.55,38.83,7.34,6.16,14.85,12.13,22.7,17.53a141.76,141.76,0,0,0,12.08,7.51c2.08,1.1,4.17,2.19,6.32,3.08a40,40,0,0,0,6.52,2.25,20.53,20.53,0,0,0,6.49.66,9.51,9.51,0,0,0,5.45-2.12,11.37,11.37,0,0,0,3.23-5.06,26.92,26.92,0,0,0,1.3-6.53,82.07,82.07,0,0,0-.21-14c-.41-4.73-1-9.47-1.63-14.22-1.24-9.51-2.58-19.08-3.11-28.84a98.6,98.6,0,0,1,.19-14.77,44.06,44.06,0,0,1,3.74-14.74,24.15,24.15,0,0,1,10.93-11.33,27.07,27.07,0,0,1,7.52-2.42,38.25,38.25,0,0,1,7.67-.51,70.5,70.5,0,0,1,14.74,2.21c4.77,1.18,9.43,2.64,14,4.24s9.09,3.28,13.59,4.91a118.06,118.06,0,0,0,13.48,4.2,21.58,21.58,0,0,0,6.45.63c2-.19,3.27-1,3.7-2.45a5.31,5.31,0,0,0,.08-2.6,15.48,15.48,0,0,0-.87-3.05,49.4,49.4,0,0,0-3.07-6.19c-2.34-4.09-5-8.14-7.41-12.34a63.85,63.85,0,0,1-6.23-13.41,24.85,24.85,0,0,1-1.13-7.58,15.93,15.93,0,0,1,2-7.6,18.14,18.14,0,0,1,5.33-5.62,29.93,29.93,0,0,1,6.67-3.44,64.73,64.73,0,0,1,14.28-3.25,137.76,137.76,0,0,1,14.47-.91c4.83-.07,9.65.06,14.45.31s9.6.69,14.38,1.17c-4.8-.23-9.6-.39-14.4-.41s-9.6,0-14.38.26a135.37,135.37,0,0,0-14.25,1.45,62.34,62.34,0,0,0-13.65,3.66c-4.26,1.77-8.31,4.37-10.4,8.19a13,13,0,0,0-1.48,6.22,21.65,21.65,0,0,0,1.19,6.58,64.1,64.1,0,0,0,6.2,12.54c2.47,4.06,5.16,8,7.68,12.22a52.11,52.11,0,0,1,3.46,6.65,19,19,0,0,1,1.17,3.85,9.3,9.3,0,0,1-.13,4.52,8.24,8.24,0,0,1-1.08,2.26,7.52,7.52,0,0,1-1.82,1.74,9.46,9.46,0,0,1-4.33,1.5,25.44,25.44,0,0,1-7.85-.62,119,119,0,0,1-14.08-4.19c-4.56-1.58-9.07-3.21-13.6-4.72s-9-2.93-13.61-4a65.71,65.71,0,0,0-13.72-2,26.88,26.88,0,0,0-12.84,2.46,19.17,19.17,0,0,0-8.66,9.09,39.14,39.14,0,0,0-3.33,13.05,96.54,96.54,0,0,0-.23,14c.46,9.45,1.8,18.93,2.93,28.49.57,4.79,1.11,9.59,1.47,14.45a85.91,85.91,0,0,1,0,14.79,31.29,31.29,0,0,1-1.62,7.55,15.43,15.43,0,0,1-4.6,6.83,13.65,13.65,0,0,1-7.8,2.92,24.56,24.56,0,0,1-7.77-.92,42.6,42.6,0,0,1-7-2.58c-2.27-1-4.43-2.18-6.57-3.37a130.1,130.1,0,0,1-12.21-8c-7.83-5.72-15.23-11.92-22.42-18.34s-14.1-13.14-20.92-19.92q-5.11-5.1-10.13-10.28T82,256.62Z"/></svg>